<svg version="1.1" xmlns="http://www.w3.org/2000/svg" xmlns:xlink="http://www.w3.org/1999/xlink" width="50px" height="50px" viewBox="0,0,256,256"><g fill="#939393" fill-rule="nonzero" stroke="none" stroke-width="1" stroke-linecap="butt" stroke-linejoin="miter" stroke-miterlimit="10" stroke-dasharray="" stroke-dashoffset="0" font-family="none" font-weight="none" font-size="none" text-anchor="none" style="mix-blend-mode: normal"><g transform="scale(5.12,5.12)"><path d="M20.06445,2.52344c-0.24627,0.00312 -0.48273,0.09701 -0.66406,0.26367l-3.55273,3.25586l-4.73633,0.78906c-0.34453,0.05763 -0.63403,0.29086 -0.76367,0.61523l-1.77539,4.4375l-3.94531,2.76367c-0.28505,0.19905 -0.44627,0.53185 -0.42578,0.87891l0.29688,4.83594l-2.36719,4.14063c-0.17562,0.30742 -0.17562,0.68477 0,0.99219l2.36719,4.14063l-0.29687,4.83594c-0.02049,0.34706 0.14073,0.67986 0.42578,0.87891l3.94531,2.76367l1.77539,4.4375c0.12964,0.32438 0.41914,0.5576 0.76367,0.61523l4.73633,0.78906l3.55273,3.25586c0.25927,0.23732 0.6241,0.32111 0.96094,0.2207l4.63867,-1.38086l4.63867,1.38086c0.33684,0.10041 0.70166,0.01661 0.96094,-0.2207l3.55273,-3.25586l4.73633,-0.78906c0.34454,-0.05763 0.63403,-0.29086 0.76367,-0.61523l1.77539,-4.4375l3.94531,-2.76367c0.28505,-0.19905 0.44627,-0.53185 0.42578,-0.87891l-0.29687,-4.83594l2.36719,-4.14062c0.17562,-0.30742 0.17562,-0.68477 0,-0.99219l-2.36719,-4.14062l0.29688,-4.83594c0.02049,-0.34706 -0.14073,-0.67986 -0.42578,-0.87891l-3.94531,-2.76367l-1.77539,-4.4375c-0.12964,-0.32437 -0.41914,-0.5576 -0.76367,-0.61523l-4.73633,-0.78906l-3.55273,-3.25586c-0.25927,-0.23732 -0.6241,-0.32111 -0.96094,-0.2207l-4.63867,1.38086l-4.63867,-1.38086c-0.09624,-0.02917 -0.19632,-0.04365 -0.29687,-0.04297zM20.33398,4.64453l4.38086,1.30469c0.18607,0.05535 0.38424,0.05535 0.57031,0l4.38086,-1.30469l3.35352,3.07422c0.14298,0.13046 0.32074,0.21662 0.51172,0.24805l4.47266,0.74609l1.67773,4.19141c0.07248,0.18048 0.19601,0.33591 0.35547,0.44726l3.73047,2.61328l-0.2793,4.57422c-0.01208,0.19413 0.03272,0.38758 0.12891,0.55664l2.23047,3.9043l-2.23047,3.9043c-0.09619,0.16906 -0.14098,0.36251 -0.12891,0.55664l0.2793,4.57422l-3.73047,2.61328c-0.15946,0.11135 -0.28299,0.26678 -0.35547,0.44727l-1.67773,4.19141l-4.47266,0.74609c-0.19098,0.03142 -0.36874,0.11759 -0.51172,0.24805l-3.35352,3.07422l-4.38086,-1.30469c-0.18607,-0.05535 -0.38424,-0.05535 -0.57031,0l-4.38086,1.30469l-3.35352,-3.07422c-0.14298,-0.13046 -0.32074,-0.21662 -0.51172,-0.24805l-4.47266,-0.74609l-1.67774,-4.19141c-0.07248,-0.18048 -0.19601,-0.33591 -0.35547,-0.44727l-3.73047,-2.61328l0.2793,-4.57422c0.01208,-0.19413 -0.03272,-0.38758 -0.12891,-0.55664l-2.23047,-3.9043l2.23047,-3.9043c0.09619,-0.16906 0.14098,-0.36251 0.12891,-0.55664l-0.2793,-4.57422l3.73047,-2.61328c0.15946,-0.11135 0.28299,-0.26678 0.35547,-0.44726l1.67774,-4.19141l4.47266,-0.74609c0.19098,-0.03142 0.36874,-0.11759 0.51172,-0.24805zM34.05859,14.45898l-10.96094,17.00977l-7.32812,-6.61133l-1.33984,1.48438l9.07422,8.18945l12.23633,-18.99023z"></path></g></g></svg>