<svg version="1.1" xmlns="http://www.w3.org/2000/svg" xmlns:xlink="http://www.w3.org/1999/xlink" width="48px" height="48px" viewBox="0,0,256,256"><g fill="none" fill-rule="nonzero" stroke="#4b4646" stroke-width="3" stroke-linecap="round" stroke-linejoin="round" stroke-miterlimit="10" stroke-dasharray="" stroke-dashoffset="0" font-family="none" font-weight="none" font-size="none" text-anchor="none" style="mix-blend-mode: normal"><g transform="scale(5.33333,5.33333)"><path d="M13,38.876c-4.55,-3.37 -7.5,-8.779 -7.5,-14.876c0,-10.11 8.11,-18.326 18.18,-18.497"></path><path d="M29.935,6.472c7.306,2.473 12.565,9.387 12.565,17.528c0,10.217 -8.283,18.5 -18.5,18.5c-1.795,0 -3.53,-0.256 -5.171,-0.732"></path><path d="M16.211,16.233c1.992,-1.997 4.746,-3.233 7.789,-3.233c6.075,0 11,4.925 11,11c0,6.075 -4.925,11 -11,11c-6.075,0 -11,-4.925 -11,-11c0,-0.951 0.121,-1.874 0.348,-2.754"></path></g></g></svg>