<svg version="1.1" xmlns="http://www.w3.org/2000/svg" xmlns:xlink="http://www.w3.org/1999/xlink" width="50px" height="50px" viewBox="0,0,256,256"><g fill="#939393" fill-rule="nonzero" stroke="none" stroke-width="1" stroke-linecap="butt" stroke-linejoin="miter" stroke-miterlimit="10" stroke-dasharray="" stroke-dashoffset="0" font-family="none" font-weight="none" font-size="none" text-anchor="none" style="mix-blend-mode: normal"><g transform="scale(5.12,5.12)"><path d="M25,4c-12.67187,0 -23,8.87891 -23,19.99219c0,6.45313 3.53125,12.07031 8.96094,15.73828c-0.00781,0.21484 0.00781,0.56641 -0.27734,1.61328c-0.34766,1.30078 -1.05859,3.12891 -2.49609,5.19141l-1.02344,1.46484h1.78516c6.19141,0 9.77344,-4.03516 10.32813,-4.68359c1.84375,0.43359 3.74219,0.67188 5.72266,0.67188c12.67188,0 23,-8.87891 23,-19.99609c0,-11.11328 -10.32812,-19.99219 -23,-19.99219zM33,34c0,0.55469 -0.44531,1 -1,1c-0.55469,0 -1,-0.44531 -1,-1v-6.98828c0,-2.53906 -1.45703,-4 -4,-4h-8.58594l4.29297,4.29297c0.39063,0.39063 0.39063,1.02344 0,1.41406c-0.19531,0.19531 -0.44922,0.29297 -0.70703,0.29297c-0.25781,0 -0.51172,-0.09766 -0.70703,-0.29297l-6.70703,-6.70703l6.70703,-6.70703c0.39063,-0.39062 1.02344,-0.39062 1.41406,0c0.39063,0.39063 0.39063,1.02344 0,1.41406l-4.29297,4.29297h8.58594c3.64453,0 6,2.35547 6,6z"></path></g></g></svg>