<svg version="1.1" xmlns="http://www.w3.org/2000/svg" xmlns:xlink="http://www.w3.org/1999/xlink" width="48px" height="48px" viewBox="0,0,256,256"><g fill="#919191" fill-rule="nonzero" stroke="none" stroke-width="1" stroke-linecap="butt" stroke-linejoin="miter" stroke-miterlimit="10" stroke-dasharray="" stroke-dashoffset="0" font-family="none" font-weight="none" font-size="none" text-anchor="none" style="mix-blend-mode: normal"><g transform="scale(5.33333,5.33333)"><path d="M24,3.99805c-11.02771,0 -20,8.97229 -20,20c0,3.27532 0.86271,6.33681 2.26172,9.06641l-2.16797,7.76172c-0.50495,1.8034 1.27818,3.58644 3.08203,3.08203l7.76758,-2.16797c2.72738,1.39608 5.78439,2.25781 9.05664,2.25781c11.02771,0 20,-8.97229 20,-20c0,-11.02771 -8.97229,-20 -20,-20zM24,6.99805c9.40629,0 17,7.59371 17,17c0,9.40629 -7.59371,17 -17,17c-3.00158,0 -5.8094,-0.78052 -8.25781,-2.14453c-0.34512,-0.19235 -0.7522,-0.24078 -1.13281,-0.13477l-7.38672,2.06055l2.0625,-7.38281c0.10655,-0.38122 0.05811,-0.7891 -0.13477,-1.13477c-1.36674,-2.4502 -2.15039,-5.25915 -2.15039,-8.26367c0,-9.40629 7.59371,-17 17,-17zM20.4707,13.98633c-0.38956,0.01135 -0.75941,0.17386 -1.03125,0.45313l-6,6c-0.58555,0.58579 -0.58555,1.5353 0,2.12109l6,6c0.37623,0.39185 0.9349,0.54969 1.46055,0.41265c0.52565,-0.13704 0.93616,-0.54754 1.07319,-1.07319c0.13704,-0.52565 -0.0208,-1.08432 -0.41265,-1.46055l-3.43945,-3.43945h5.37891c3.60723,0 6.5,2.89277 6.5,6.5v2c-0.00765,0.54095 0.27656,1.04412 0.74381,1.31683c0.46725,0.27271 1.04514,0.27271 1.51238,0c0.46725,-0.27271 0.75146,-0.77588 0.74381,-1.31683v-2c0,-5.22877 -4.27123,-9.5 -9.5,-9.5h-5.37891l3.43945,-3.43945c0.4429,-0.43135 0.57582,-1.09023 0.33479,-1.65955c-0.24103,-0.56932 -0.80665,-0.93247 -1.42463,-0.91467z"></path></g></g></svg>