<svg version="1.1" xmlns="http://www.w3.org/2000/svg" xmlns:xlink="http://www.w3.org/1999/xlink" width="50px" height="50px" viewBox="0,0,256,256"><g fill="#4d4545" fill-rule="nonzero" stroke="none" stroke-width="1" stroke-linecap="butt" stroke-linejoin="miter" stroke-miterlimit="10" stroke-dasharray="" stroke-dashoffset="0" font-family="none" font-weight="none" font-size="none" text-anchor="none" style="mix-blend-mode: normal"><g transform="scale(5.12,5.12)"><path d="M7.8125,4c-0.47656,0.08984 -0.82031,0.51172 -0.8125,1v40c0,0.55078 0.44922,1 1,1h34c0.55078,0 1,-0.44922 1,-1v-40c0,-0.55078 -0.44922,-1 -1,-1h-34c-0.03125,0 -0.0625,0 -0.09375,0c-0.03125,0 -0.0625,0 -0.09375,0zM9,6h32v38h-32zM14,12v2h3v-2zM20,12v2h17v-2zM14,20v2h3v-2zM20,20v2h17v-2zM14,28v2h3v-2zM20,28v2h17v-2zM14,36v2h3v-2zM20,36v2h17v-2z"></path></g></g></svg>