<svg version="1.1" xmlns="http://www.w3.org/2000/svg" xmlns:xlink="http://www.w3.org/1999/xlink" width="72px" height="72px" viewBox="0,0,256,256"><g fill="#4b4646" fill-rule="nonzero" stroke="none" stroke-width="1" stroke-linecap="butt" stroke-linejoin="miter" stroke-miterlimit="10" stroke-dasharray="" stroke-dashoffset="0" font-family="none" font-weight="none" font-size="none" text-anchor="none" style="mix-blend-mode: normal"><g transform="scale(3.55556,3.55556)"><path d="M36,3.00391c-0.65237,0 -1.30589,0.23648 -1.77539,0.70898l-7,7.05078c-0.972,0.98 -0.96533,2.56411 0.01367,3.53711c0.981,0.971 2.56116,0.96533 3.53516,-0.01367l2.22656,-2.24219v24.00586c0,1.657 1.343,3 3,3c1.657,0 3,-1.343 3,-3v-24.00586l2.22656,2.24219c0.489,0.492 1.13044,0.73828 1.77344,0.73828c0.637,0 1.27372,-0.24161 1.76172,-0.72461c0.98,-0.973 0.98472,-2.55711 0.01172,-3.53711l-7,-7.05078c-0.47,-0.4725 -1.12106,-0.70898 -1.77344,-0.70898zM19,19c-4.418,0 -8,3.582 -8,8v22c0,4.418 3.582,8 8,8h34c4.418,0 8,-3.582 8,-8v-22c0,-4.418 -3.582,-8 -8,-8h-10v8h9.5c0.276,0 0.5,0.224 0.5,0.5v21c0,0.276 -0.224,0.5 -0.5,0.5h-33c-0.276,0 -0.5,-0.224 -0.5,-0.5v-21c0,-0.276 0.224,-0.5 0.5,-0.5h9.5v-8z"></path></g></g></svg>